# xmcd CD database file
#
# Track frame offsets:
#	150
#	17755
#	34437
#	53307
#	72362
#	94700
#	112915
#	129530
#	139240
#	154635
#	172245
#	193695
#	206659
#	228505
#	246715
#
# Disc length: 3463 seconds
#
# Revision: 0
# Processed by: cddbd v1.5.1PL2 Copyright (c) Steve Scherf et al.
# Submitted via: CDex 1.50beta10
#
DISCID=d80d850f
DTITLE=KonFerenz - KonTakt
DYEAR=2006
DGENRE=Jazz
TTITLE0=Suspekt
TTITLE1=Konspiration V1.
TTITLE2=Nkechi
TTITLE3=Denkbar
TTITLE4=Eloquenz
TTITLE5=Synonym
TTITLE6=Plan B
TTITLE7=Quintessenz
TTITLE8=Konfluenz
TTITLE9=Radar
TTITLE10=Korrespondenz
TTITLE11=Konvergenz
TTITLE12=Konspiration V2.
TTITLE13=Konferenz
TTITLE14=Proforma
EXTD=YEAR: 2006
EXTT0=
EXTT1=
EXTT2=
EXTT3=
EXTT4=
EXTT5=
EXTT6=
EXTT7=
EXTT8=
EXTT9=
EXTT10=
EXTT11=
EXTT12=
EXTT13=
EXTT14=
PLAYORDER=
